<?xml version="1.0" standalone="no"?>
<!DOCTYPE svg PUBLIC "-//W3C//DTD SVG 20010904//EN"
 "http://www.w3.org/TR/2001/REC-SVG-20010904/DTD/svg10.dtd">
<svg version="1.0" xmlns="http://www.w3.org/2000/svg"
 width="300.000000pt" height="300.000000pt" viewBox="0 0 300.000000 300.000000"
 preserveAspectRatio="xMidYMid meet">
<metadata>
Created by potrace 1.10, written by Peter Selinger 2001-2011
</metadata>
<g transform="translate(0.000000,300.000000) scale(0.100000,-0.100000)"
fill="#000000" stroke="none">
<path d="M1374 2722 c2 -4 -20 -7 -49 -8 -30 -1 -68 -8 -87 -17 -18 -8 -51
-19 -73 -23 -22 -3 -61 -17 -87 -31 -27 -13 -48 -20 -48 -16 0 5 -4 3 -8 -3
-4 -6 -23 -19 -41 -29 -49 -25 -183 -112 -179 -117 2 -2 -17 -21 -42 -43 -25
-22 -53 -50 -63 -62 -10 -12 -35 -41 -57 -65 -22 -24 -40 -49 -40 -56 0 -7 -7
-15 -15 -18 -8 -4 -15 -12 -15 -19 0 -7 -9 -24 -20 -38 -15 -18 -17 -27 -8
-30 9 -3 6 -11 -10 -25 -13 -11 -22 -22 -21 -24 1 -2 -1 -13 -5 -25 -8 -24
-26 -32 -101 -43 -47 -7 -45 -8 30 -9 l81 -1 16 43 c14 39 17 42 49 39 19 -2
35 -5 37 -7 2 -2 -4 -17 -12 -34 -9 -16 -16 -32 -16 -36 0 -3 28 -4 63 -4 54
2 57 3 22 8 -35 5 -40 9 -41 34 -1 15 3 27 8 27 5 0 6 5 2 11 -8 13 9 11 96
-15 30 -9 93 -26 139 -36 46 -11 87 -23 90 -26 7 -8 -42 -1 -154 21 -123 24
-143 26 -150 15 -3 -5 -5 -10 -3 -10 2 0 70 -14 152 -30 138 -28 151 -29 173
-14 20 12 31 13 55 5 40 -14 43 -14 28 4 -7 8 -21 15 -31 15 -11 0 -27 5 -37
10 -29 17 -172 59 -185 54 -7 -2 -44 4 -84 14 l-71 18 36 55 c21 30 51 73 69
94 29 34 35 37 56 28 28 -13 49 -4 89 41 43 47 23 45 -26 -3 -36 -35 -45 -40
-55 -28 -9 12 -3 22 36 55 34 30 50 38 56 29 6 -8 7 -6 3 6 -4 11 1 20 12 24
9 4 25 14 34 23 26 23 126 72 154 74 13 0 24 4 24 7 0 12 74 36 150 49 123 22
140 18 140 -30 0 -32 23 -50 63 -50 30 0 44 16 49 55 3 27 7 30 38 31 19 0 49
-3 65 -8 17 -5 37 -11 45 -13 8 -2 27 -8 41 -13 15 -6 29 -8 32 -5 10 9 197
-91 210 -113 4 -8 16 -14 25 -15 9 -1 -2 -5 -26 -10 -41 -8 -44 -7 -82 31 -36
36 -42 38 -69 29 -16 -6 -37 -20 -48 -31 l-18 -22 25 17 c53 36 111 12 109
-44 -1 -23 -3 -27 -6 -12 -4 22 -5 22 -30 -7 -38 -46 -78 -63 -132 -57 -45 4
-46 4 -16 -9 17 -7 43 -13 58 -14 27 0 107 34 117 51 13 19 83 39 137 38 l58
-2 -45 -7 c-25 -3 -82 -26 -127 -50 -105 -56 -149 -58 -247 -12 -75 35 -80 37
-71 22 3 -5 1 -10 -5 -10 -7 0 -9 7 -6 16 3 9 6 18 6 20 0 2 16 -3 37 -11 20
-8 38 -13 40 -11 3 2 18 0 34 -4 16 -5 27 -5 24 0 -3 5 -19 11 -36 15 -16 4
-50 24 -75 46 -25 22 -50 37 -55 34 -5 -4 -9 3 -9 15 0 19 2 20 28 6 15 -8 47
-29 72 -45 47 -32 110 -41 140 -20 12 9 11 10 -6 6 -12 -2 -28 0 -35 5 -11 8
-10 9 4 4 9 -3 17 -1 17 4 0 13 -16 13 -39 -2 -16 -10 -30 -5 -87 29 -50 30
-85 43 -127 48 -52 6 -61 4 -92 -19 -36 -28 -61 -83 -68 -154 -6 -53 8 -47 17
7 7 48 26 92 36 86 4 -3 7 2 6 11 -2 27 46 56 89 52 l38 -3 -62 -48 c-46 -35
-68 -62 -89 -105 -15 -31 -27 -61 -27 -67 1 -16 36 -77 60 -106 27 -33 50 -20
53 30 1 18 7 41 12 52 6 11 7 20 1 24 -10 5 -31 -54 -31 -87 0 -10 -5 -18 -10
-18 -22 0 -19 28 10 85 17 33 30 74 30 95 0 73 48 82 73 13 19 -51 18 -66 -3
-28 -7 14 -17 25 -22 25 -5 0 -6 5 -3 10 3 6 1 10 -5 10 -6 0 -8 5 -4 12 4 6
3 8 -3 5 -9 -6 -10 -26 -5 -76 2 -11 5 -10 15 4 11 14 16 15 22 5 5 -8 -1 -19
-16 -31 -16 -12 -23 -26 -21 -43 2 -14 -4 -36 -14 -50 -10 -16 -14 -37 -11
-53 5 -29 0 -53 -13 -53 -4 0 -5 12 -3 28 4 23 3 24 -7 9 -6 -9 -15 -15 -21
-12 -5 4 -14 -6 -19 -21 -12 -29 -60 -91 -60 -76 0 5 9 21 20 35 25 31 25 32
0 34 -19 2 -66 -45 -55 -55 2 -3 14 7 26 22 12 15 23 25 26 23 6 -6 -40 -77
-68 -105 -17 -17 -23 -33 -22 -62 1 -22 -2 -42 -8 -45 -5 -4 -9 -14 -9 -23 1
-11 6 -7 16 11 9 16 13 39 10 51 -4 17 3 30 24 51 17 16 30 35 30 44 0 8 3 11
7 8 4 -4 20 5 36 20 22 21 28 23 24 10 -4 -10 -7 -23 -7 -28 0 -5 -8 -9 -17
-10 -11 0 -13 -3 -6 -6 21 -8 -4 -41 -43 -58 -24 -10 -34 -20 -31 -29 3 -8 0
-31 -6 -52 -14 -45 -44 -55 -92 -30 -25 13 -31 12 -64 -6 -20 -11 -40 -24 -46
-28 -17 -13 -86 -32 -92 -26 -3 3 23 19 58 35 36 17 53 29 39 28 -30 -4 -82
-30 -99 -51 -11 -13 -11 -17 3 -22 9 -3 13 -10 10 -16 -4 -5 -10 -5 -18 1 -8
7 -26 5 -54 -5 -24 -8 -69 -16 -100 -18 -31 -3 -99 -14 -149 -25 -51 -11 -99
-18 -106 -15 -8 3 -20 -2 -27 -11 -8 -9 -29 -15 -59 -15 -26 0 -52 -5 -58 -11
-6 -6 -51 -17 -99 -24 l-89 -13 81 5 82 5 -1 -43 c0 -24 6 -63 14 -87 12 -37
11 -44 -1 -52 -11 -7 -8 -10 15 -10 29 -1 29 -2 7 -11 -13 -5 -30 -16 -39 -24
-16 -16 -16 -16 47 -1 3 0 6 -4 8 -9 1 -6 -6 -11 -18 -13 -17 -3 -18 -5 -6
-18 8 -8 19 -14 25 -14 13 0 18 -9 26 -51 7 -35 6 -37 -35 -53 -62 -25 -44
-28 27 -5 l61 20 -23 54 c-32 71 -72 210 -80 278 l-7 54 47 7 c75 10 82 8 89
-19 4 -14 11 -25 17 -25 6 0 6 6 0 18 -9 17 0 20 107 37 64 10 124 22 134 26
11 6 18 4 22 -7 9 -23 7 -31 -3 -15 -8 12 -12 13 -25 1 -14 -11 -15 -15 -3
-29 8 -9 17 -26 20 -38 4 -18 1 -23 -13 -23 -13 0 -21 10 -25 32 -10 44 -16
53 -25 37 -5 -6 -3 -23 3 -36 8 -18 8 -29 -1 -44 -7 -11 -8 -19 -2 -19 5 0 10
4 10 10 0 5 6 7 14 4 8 -3 41 0 73 7 56 13 57 14 21 17 -21 2 -38 7 -38 12 0
10 56 57 107 89 29 19 56 26 118 30 78 5 78 6 30 12 l-50 6 57 1 c31 1 60 -2
63 -8 3 -5 29 -10 57 -10 47 0 54 3 89 41 31 34 40 39 45 25 3 -9 11 -16 17
-16 5 0 2 9 -7 19 -13 14 -15 24 -8 37 8 15 11 12 18 -17 4 -19 8 -38 8 -42 1
-4 7 -12 15 -16 15 -9 43 -82 36 -90 -3 -2 -5 1 -5 7 0 20 -20 13 -29 -10 -5
-14 -10 -17 -15 -10 -4 6 2 20 12 30 17 17 18 22 6 43 l-13 24 -1 -27 c0 -15
-5 -30 -10 -33 -6 -4 -8 -26 -5 -53 6 -45 5 -48 -27 -67 -56 -33 -127 -59
-280 -105 -120 -35 -148 -47 -152 -64 -6 -19 -8 -19 -19 -5 -11 15 -20 14 -97
-12 -68 -23 -76 -28 -40 -23 25 4 53 11 63 16 10 5 36 7 57 4 29 -4 42 -1 56
15 10 11 24 17 31 15 7 -3 13 0 13 5 0 6 9 9 20 6 11 -3 18 -1 14 4 -3 5 1 9
8 9 7 1 33 5 58 9 l44 9 -36 -31 c-20 -18 -44 -38 -54 -45 -11 -7 -13 -10 -5
-6 9 5 12 3 7 -5 -4 -6 -12 -9 -17 -5 -6 3 -23 0 -40 -6 -29 -12 -38 -33 -19
-45 6 -3 10 -17 10 -30 0 -23 12 -37 120 -139 64 -60 90 -70 215 -80 50 -4 91
-15 124 -32 27 -14 45 -9 21 7 -28 18 -142 49 -180 49 -42 0 -105 20 -145 46
-38 25 -26 26 34 3 30 -11 90 -27 133 -35 44 -8 103 -24 130 -35 28 -11 53
-18 55 -15 2 2 -16 12 -41 21 -35 14 -44 21 -36 31 8 9 5 18 -12 34 -25 23
-60 21 -89 -6 -9 -8 -18 -12 -20 -10 -3 3 -20 8 -38 11 -19 3 -39 9 -45 13 -6
3 -15 7 -21 7 -28 3 -45 19 -45 46 0 17 -8 33 -20 42 -20 14 -20 14 -1 31 11
10 17 24 14 32 -3 8 0 14 5 14 6 0 17 6 24 13 21 20 110 77 121 77 6 0 18 6
26 14 9 8 39 26 66 41 57 31 86 60 79 79 -8 20 12 28 26 11 7 -8 17 -15 23
-15 6 0 -3 15 -20 33 -17 17 -33 43 -35 56 -2 21 2 26 27 32 17 3 38 10 47 14
14 6 18 -2 24 -57 7 -56 8 -60 15 -33 5 18 4 42 -3 61 -17 49 -5 65 76 94 l29
11 -20 22 c-11 12 -19 29 -18 37 1 8 3 22 4 30 1 8 11 26 22 40 12 15 19 18
16 8 -10 -31 47 -46 208 -54 83 -3 147 -3 143 1 -8 8 -37 11 -190 19 -120 6
-157 23 -158 69 0 11 -9 30 -19 43 -15 19 -20 21 -25 9 -3 -8 -2 -14 2 -14 19
3 23 -2 12 -16 -11 -13 -10 -14 4 -9 9 3 16 1 16 -5 0 -6 -5 -11 -11 -11 -5 0
-8 -4 -5 -9 3 -5 -4 -20 -17 -33 -25 -28 -57 -82 -57 -95 0 -4 7 0 14 10 13
16 14 16 29 -7 15 -22 14 -24 -9 -35 -31 -14 -32 -14 -37 2 -2 6 -3 4 -2 -5 2
-10 -3 -22 -10 -28 -10 -8 -16 -3 -25 24 -10 32 -9 39 10 67 13 17 28 28 36
25 23 -9 16 18 -8 33 -20 13 -22 12 -11 -1 10 -12 9 -19 -10 -36 -41 -39 -44
-45 -36 -82 11 -47 11 -72 0 -65 -5 3 -12 1 -16 -5 -12 -19 -23 -10 -36 28 -6
20 -20 48 -30 63 -25 35 -12 52 28 37 36 -13 63 1 63 32 0 21 73 83 86 72 4
-4 3 0 -3 8 -6 8 -7 24 -3 35 5 13 0 34 -13 60 -12 22 -20 43 -19 48 1 4 -2 7
-8 7 -15 0 -12 34 5 56 15 18 16 17 10 -13 -5 -24 0 -44 16 -73 13 -22 27 -40
33 -40 6 0 5 5 -2 12 -20 20 -13 27 17 15 24 -9 33 -8 48 5 22 19 31 18 135
-23 92 -36 93 -37 86 -44 -7 -8 -109 24 -147 46 l-33 20 -19 -22 c-11 -12 -17
-25 -13 -28 3 -3 10 2 15 11 8 15 23 10 132 -42 97 -46 125 -55 135 -46 7 7
26 46 42 86 15 41 33 76 39 78 7 2 11 -18 11 -58 0 -52 -4 -67 -25 -92 -14
-17 -24 -35 -22 -41 3 -9 10 -15 46 -34 2 -1 -4 -9 -12 -18 -12 -12 -41 -15
-129 -16 -92 -1 -107 -3 -78 -11 19 -5 47 -8 62 -6 57 9 25 -10 -47 -27 -63
-14 -78 -15 -93 -4 -10 8 -9 4 4 -10 l21 -22 118 35 c65 20 125 36 133 36 36
0 -9 -21 -113 -54 -116 -36 -172 -60 -158 -69 5 -3 15 -2 23 4 25 15 30 11 62
-56 24 -53 28 -68 18 -80 -7 -8 -16 -15 -20 -15 -4 0 -28 35 -54 77 -45 74
-53 109 -21 97 27 -11 15 10 -22 38 l-35 27 -38 -22 c-45 -26 -46 -36 -1 -12
36 18 77 5 67 -22 -3 -8 -6 -21 -6 -29 0 -9 -10 -14 -27 -14 -14 0 -34 -6 -42
-14 -30 -26 -56 -28 -77 -5 -18 20 -18 21 6 40 20 15 22 19 7 19 -9 0 -26 -5
-37 -12 -19 -12 -19 -13 1 -34 17 -18 19 -26 10 -42 -17 -32 -12 -40 8 -13 36
48 30 2 -8 -50 -35 -49 -38 -60 -40 -126 -3 -83 28 -202 60 -234 20 -20 20
-21 2 -34 -32 -25 -86 -19 -108 12 -28 37 -68 73 -82 73 -6 0 -13 6 -16 13 -5
15 -213 18 -215 2 -9 -61 -10 -60 48 -67 30 -3 76 -11 101 -16 51 -12 159 -59
159 -70 0 -4 19 -27 41 -52 23 -25 37 -36 31 -25 -21 42 -95 116 -135 135 -26
12 -33 18 -17 15 19 -4 17 -1 -9 11 -40 18 -109 31 -76 14 18 -9 17 -10 -5 -5
-14 2 -51 5 -83 5 -50 0 -58 2 -55 17 4 21 40 30 119 32 49 1 63 -4 116 -38
32 -21 69 -50 81 -65 21 -27 21 -27 82 -15 33 6 63 9 66 6 12 -12 -8 -26 -49
-32 -58 -10 -60 -12 -36 -46 12 -17 23 -28 26 -25 3 3 -2 13 -12 22 -15 16
-15 18 -1 26 9 5 21 6 26 3 6 -3 10 -1 10 4 0 17 56 13 70 -4 7 -8 17 -15 23
-15 7 0 7 4 -1 12 -21 21 -13 32 10 12 12 -10 18 -14 15 -7 -10 17 2 40 21 40
9 0 34 -19 56 -41 21 -23 34 -32 28 -21 -6 11 -22 31 -36 44 -47 44 -27 57 23
15 23 -19 31 -34 31 -59 0 -30 9 -41 73 -93 50 -42 82 -78 107 -121 19 -34 56
-91 83 -126 46 -63 59 -93 35 -79 -10 5 -10 4 -1 -6 6 -7 19 -10 27 -7 13 5 6
20 -34 72 -28 37 -70 101 -95 143 -35 62 -58 88 -115 131 -59 45 -70 58 -70
83 0 40 -41 110 -59 100 -3 -2 -6 1 -7 7 -2 7 -1 8 3 1 3 -6 15 -2 30 10 14
11 29 18 33 15 4 -3 10 2 14 10 3 8 15 15 28 15 21 0 21 0 3 14 -18 13 -23 11
-56 -15 -20 -16 -40 -29 -43 -29 -16 0 -3 26 26 50 28 24 31 30 19 44 -18 22
-26 20 -28 -5 -1 -12 -6 -26 -12 -32 -6 -6 -7 5 -4 32 4 32 2 42 -11 47 -22 8
-20 40 4 64 11 11 22 40 26 69 4 28 10 48 14 46 4 -3 18 4 31 14 23 19 23 19
7 69 l-16 51 24 -15 c46 -31 131 -196 121 -236 -3 -10 0 -18 5 -18 17 0 0 79
-33 147 -35 73 -68 115 -123 154 -21 16 -32 29 -24 29 22 0 128 -72 168 -114
30 -32 35 -34 42 -19 13 33 8 42 -24 45 -40 4 -34 23 7 24 28 0 30 3 36 42 l5
42 -40 -1 c-31 0 -36 -2 -21 -8 11 -5 23 -7 28 -4 4 2 7 -3 7 -11 0 -9 -5 -16
-11 -16 -5 0 -8 -4 -5 -9 11 -17 -40 -30 -65 -17 -40 21 -69 41 -69 47 0 13
88 33 133 30 l48 -3 -7 41 c-5 34 -4 41 10 41 12 0 16 -10 16 -40 0 -29 4 -40
15 -40 8 0 15 7 15 16 0 9 5 12 12 8 6 -4 8 -3 4 4 -3 6 2 13 11 16 10 3 7 4
-7 3 -20 -3 -25 1 -26 20 -2 18 3 23 23 23 13 0 21 -4 18 -10 -4 -6 6 -10 21
-10 27 0 27 1 8 15 -10 7 -51 22 -91 31 l-71 17 20 28 c22 30 38 30 38 0 0
-11 17 -23 52 -37 29 -10 57 -21 63 -23 22 -8 -9 16 -53 40 -30 17 -46 32 -45
43 0 11 -4 15 -13 12 -11 -4 -14 6 -13 47 1 29 3 65 6 81 5 28 6 28 57 24 28
-2 68 -12 88 -22 25 -12 42 -15 55 -8 10 5 24 7 31 5 18 -7 15 11 -15 71 -21
43 -30 53 -42 47 -9 -5 -56 -18 -106 -31 -49 -12 -96 -26 -103 -32 -10 -9 -18
-6 -33 9 -18 18 -19 22 -5 35 8 9 12 19 8 23 -4 5 0 4 8 -1 8 -5 23 -7 33 -6
24 4 21 -13 -5 -31 -13 -9 26 0 92 19 63 19 115 36 117 37 1 2 -18 29 -43 62
-38 52 -42 61 -27 67 14 5 12 7 -9 7 -14 1 -28 7 -31 14 -3 8 -10 5 -22 -10
-9 -13 -22 -23 -28 -23 -7 0 -6 4 3 10 28 17 2 21 -31 5 -39 -21 -125 -32
-114 -16 3 6 11 9 16 6 5 -4 9 -1 9 5 0 7 9 10 23 7 12 -3 31 -1 42 3 23 10 9
13 -40 10 -42 -2 -69 -22 -106 -77 -23 -34 -26 -43 -11 -29 12 11 25 16 29 13
8 -9 -33 -53 -50 -55 -6 0 -28 -4 -47 -7 -32 -6 -38 -4 -68 34 -18 23 -30 41
-25 40 19 -5 110 15 128 28 19 13 18 14 -10 6 -51 -14 -167 -8 -209 10 -44 20
-44 34 0 16 16 -7 73 -12 127 -13 83 0 100 3 115 19 16 18 16 18 -3 4 -18 -13
-19 -13 -6 3 7 10 17 16 21 13 4 -2 24 5 46 15 50 26 85 25 119 -2 17 -13 26
-16 23 -8 -2 8 -24 24 -48 37 -35 19 -39 23 -20 23 13 0 38 -14 56 -31 26 -25
35 -29 51 -20 14 8 15 11 3 11 -8 1 2 8 24 16 21 7 42 11 47 9 4 -3 39 10 76
29 67 35 67 35 27 30 -27 -4 -44 -2 -49 6 -5 8 -15 4 -34 -13 -27 -27 -90 -50
-77 -28 4 6 2 11 -3 11 -6 0 -11 -4 -11 -9 0 -18 -46 5 -120 60 -136 101 -304
170 -456 185 l-66 7 3 -52 4 -51 -31 0 -31 0 5 52 5 51 -84 -6 c-220 -17 -423
-112 -583 -271 -45 -45 -101 -112 -126 -151 -24 -38 -45 -71 -46 -73 -1 -2
-12 2 -24 8 -16 9 -25 9 -36 -1 -25 -21 -6 19 53 108 195 298 533 467 897 450
241 -11 430 -90 634 -265 l50 -42 31 26 c17 14 31 31 31 36 0 6 -8 4 -18 -5
-24 -22 -57 -22 -74 1 -19 26 -108 97 -145 116 -18 9 -33 21 -33 25 0 5 -17
15 -37 21 -39 13 -58 20 -157 64 -32 14 -62 23 -68 20 -5 -3 -16 0 -24 7 -8 6
-27 13 -42 15 -15 2 -40 6 -57 9 -44 9 -246 14 -241 7z m166 -318 c0 -18 -4
-25 -14 -21 -16 6 -56 -32 -56 -54 0 -8 -12 -25 -28 -39 -15 -14 -21 -20 -13
-15 12 8 13 6 8 -10 -6 -16 -3 -15 13 5 11 14 20 20 20 13 0 -6 -4 -15 -10
-18 -5 -3 -10 -19 -10 -34 0 -15 -6 -35 -13 -45 -12 -17 -14 -16 -31 10 -17
26 -18 28 -2 40 11 8 13 14 7 19 -24 14 -8 49 52 111 35 35 66 64 70 64 4 0 7
-12 7 -26z m76 -31 c-6 -6 -56 20 -56 29 0 5 13 1 30 -8 16 -10 28 -19 26 -21z
m679 17 c3 -5 1 -10 -4 -10 -6 0 -11 5 -11 10 0 6 2 10 4 10 3 0 8 -4 11 -10z
m-698 -163 c-13 -18 -39 -48 -58 -67 l-33 -35 21 36 c13 23 18 41 12 50 -6 10
4 25 34 50 37 33 42 35 45 17 2 -10 -7 -33 -21 -51z m72 0 c-2 -2 -17 -7 -34
-11 l-30 -6 24 20 c17 14 27 18 34 11 6 -6 9 -12 6 -14z m476 13 c4 -6 -10
-11 -29 -12 -20 -1 -43 -2 -53 -2 -9 -1 -18 4 -20 9 -4 13 94 17 102 5z m-155
-10 c11 -7 12 -12 3 -21 -8 -8 -14 -6 -22 10 -12 22 -5 27 19 11z m224 -17
c-1 -30 -18 -42 -27 -18 -4 8 -1 15 5 15 6 0 9 2 6 5 -8 8 -36 -5 -41 -19 -5
-13 8 -17 56 -17 21 0 27 -4 23 -14 -3 -10 0 -12 12 -8 13 4 12 2 -3 -9 -22
-16 -80 -38 -101 -38 -8 0 -11 6 -7 17 5 13 2 15 -11 10 -12 -5 -19 0 -26 19
-13 33 -13 34 6 27 8 -3 13 -12 10 -19 -3 -8 0 -11 8 -8 8 3 17 1 21 -5 9 -16
25 -13 25 4 0 8 -7 15 -15 15 -8 0 -19 9 -24 19 -9 16 -5 21 27 34 51 22 58
21 56 -10z m-173 -27 c3 -21 1 -49 -5 -62 -12 -25 -26 -32 -26 -12 0 6 -7 3
-15 -8 -13 -17 -14 -17 -15 -2 0 11 -5 15 -15 12 -10 -4 -15 0 -15 10 0 12 6
15 23 11 22 -6 23 -4 19 24 -3 19 0 31 7 31 7 0 11 -11 9 -26 -2 -15 2 -29 8
-31 8 -3 9 9 3 39 -11 58 -11 60 3 56 7 -3 16 -22 19 -42z m-282 -7 c18 -11
31 -23 28 -26 -3 -3 -16 2 -29 11 -12 9 -27 16 -33 16 -5 0 -3 -4 5 -10 16
-10 12 -13 -41 -24 -49 -11 -185 -118 -174 -136 4 -6 0 -11 -7 -11 -7 -1 -25
-3 -40 -5 -16 -1 -28 1 -28 6 0 5 -3 16 -7 26 -4 11 -3 15 4 11 17 -11 81 21
88 43 9 29 54 80 90 101 40 25 102 24 144 -2z m316 11 c3 -5 1 -10 -4 -10 -6
0 -11 5 -11 10 0 6 2 10 4 10 3 0 8 -4 11 -10z m-95 -26 c0 -8 -5 -12 -10 -9
-6 4 -19 1 -28 -6 -13 -11 -12 -8 2 9 22 26 36 28 36 6z m105 -24 c-6 -9 -9
-9 -16 1 -10 17 0 34 13 21 6 -6 7 -16 3 -22z m-297 -6 c33 -23 25 -84 -12
-84 -5 0 -2 6 8 13 25 18 16 50 -17 61 -30 11 -57 1 -65 -25 -3 -8 -1 -11 3
-7 4 4 14 0 21 -10 8 -10 13 -12 14 -4 0 18 20 15 20 -3 0 -24 -29 -30 -45 -9
-8 11 -15 15 -16 9 0 -5 -4 1 -9 15 -7 23 -8 23 -15 6 -13 -31 36 -67 88 -65
49 3 68 14 60 36 -8 20 1 15 91 -52 66 -49 66 -49 47 -69 -20 -19 -20 -19 -98
13 -43 18 -82 37 -87 42 -6 5 -22 9 -37 9 -44 0 -77 17 -93 49 -18 33 -14 39
50 71 48 24 63 24 92 4z m152 -8 c0 -2 3 -11 6 -20 5 -14 -3 -16 -54 -16 -69
0 -91 16 -35 25 21 4 43 8 48 10 15 5 35 6 35 1z m-166 -12 c16 -6 23 -34 9
-34 -15 1 -43 27 -36 33 8 8 8 8 27 1z m210 -30 c15 -6 15 -8 -1 -19 -16 -12
-15 -13 10 -8 15 3 27 1 27 -5 0 -27 -14 -42 -39 -42 -35 0 -44 9 -28 28 10
13 9 14 -9 4 -17 -9 -24 -9 -31 1 -24 31 -23 36 7 35 17 -1 33 2 37 5 8 8 8 8
27 1z m93 -54 c6 0 13 5 15 12 5 13 38 20 38 8 0 -18 -32 -32 -59 -27 -25 5
-28 4 -23 -18 2 -13 -7 -48 -20 -77 -14 -29 -23 -59 -20 -66 2 -6 -1 -12 -6
-12 -30 0 -23 80 12 141 23 41 24 48 11 65 -26 34 -15 40 13 6 15 -18 32 -32
39 -32z m213 40 c39 -20 60 -40 41 -40 -5 0 -13 5 -16 10 -3 6 -11 10 -16 10
-6 0 -3 -7 6 -16 28 -28 8 -27 -29 1 -26 20 -49 28 -80 29 -66 2 -44 15 42 25
7 0 30 -8 52 -19z m-614 -74 c9 -3 20 -3 26 0 6 4 9 1 6 -6 -2 -8 -9 -15 -16
-18 -16 -5 -62 43 -62 65 1 14 4 12 15 -8 8 -15 22 -29 31 -33z m-106 29 c0
-8 -7 -15 -16 -15 -14 0 -14 3 -4 15 7 8 14 15 16 15 2 0 4 -7 4 -15z m28 -54
c64 -80 -29 -171 -144 -140 -43 13 -75 -8 -66 -43 3 -14 1 -19 -6 -14 -7 4
-12 13 -12 20 0 8 -7 19 -15 26 -8 7 -15 24 -15 39 0 20 7 29 30 38 26 10 30
9 30 -7 0 -10 10 -20 21 -23 17 -4 19 -3 10 6 -6 6 -11 14 -11 17 0 12 50 30
80 30 16 0 41 10 56 23 23 20 25 25 11 30 -11 4 -17 1 -17 -8 0 -20 -32 -35
-72 -35 -19 0 -39 -5 -46 -12 -23 -23 -22 0 1 28 44 50 134 64 165 25z m367
-85 c0 -16 -4 -22 -15 -18 -29 10 -31 14 -13 28 25 19 28 17 28 -10z m-625
-77 c0 -18 -20 -49 -32 -49 -6 0 -3 9 6 19 10 11 15 25 11 30 -3 6 -1 11 4 11
6 0 11 -5 11 -11z m200 -14 c0 -6 -6 -19 -13 -29 -11 -15 -16 -16 -47 -3 -19
8 -41 12 -47 10 -7 -3 -13 2 -13 10 0 18 20 24 78 23 23 0 42 -5 42 -11z
m-305 -15 c3 -5 -3 -10 -15 -10 -11 0 -36 -6 -55 -14 -28 -12 -33 -12 -29 -1
10 25 87 45 99 25z m125 -14 c0 -7 -12 -25 -26 -40 -22 -21 -35 -26 -73 -24
-34 1 -38 2 -15 5 19 2 44 18 65 39 35 36 49 42 49 20z m-65 -16 c0 -16 -38
-26 -148 -36 -40 -3 -73 -12 -83 -21 -8 -8 -18 -12 -21 -9 -16 16 30 37 112
51 50 9 94 20 100 26 14 14 40 7 40 -11z m-295 -64 c0 -8 -24 -31 -52 -52 -29
-21 -58 -45 -65 -54 -7 -8 -13 -11 -13 -6 0 12 69 88 99 108 33 21 31 21 31 4z
m-83 -12 c-3 -3 -12 -4 -19 -1 -8 3 -5 6 6 6 11 1 17 -2 13 -5z m-262 -54
c-28 -12 -67 -12 -60 0 3 6 23 10 43 9 30 0 33 -2 17 -9z m801 -76 c-9 -23
-26 -16 -26 12 0 14 4 23 10 19 6 -3 11 2 11 12 1 12 3 11 6 -5 3 -13 2 -30
-1 -38z m359 9 c19 -27 34 -52 34 -58 0 -5 -3 -4 -6 3 -2 6 -16 12 -29 12 -19
0 -28 8 -35 29 -7 19 -20 32 -37 36 -25 7 -25 8 -7 15 36 15 44 11 80 -37z
m-70 5 c30 -14 31 -23 4 -90 -14 -35 -23 -85 -27 -148 -4 -80 -8 -97 -26 -111
-12 -10 -22 -16 -24 -14 -2 2 -10 27 -18 56 -18 70 -20 134 -3 198 12 49 23
63 31 40 2 -7 9 -5 17 5 12 14 11 16 -5 10 -15 -5 -16 -4 -7 6 6 7 26 16 45
20 l33 8 -29 1 c-16 1 -38 -6 -48 -16 -17 -15 -18 -15 -18 5 0 12 8 26 18 31
22 13 26 13 57 -1z m-267 -53 c-3 -3 -13 -2 -22 1 -14 5 -15 9 -4 15 13 8 36
-6 26 -16z m161 -47 c-25 -73 -23 -136 6 -225 28 -81 28 -123 1 -60 -49 112
-55 208 -21 295 25 60 35 52 14 -10z m-264 18 c-27 -13 -59 -33 -69 -44 -13
-15 -26 -20 -41 -16 -14 3 -27 -1 -36 -13 -13 -16 -12 -17 3 -5 9 8 26 11 37
7 10 -3 22 -1 25 4 12 18 113 71 137 71 19 0 21 2 9 10 -8 5 -10 10 -5 10 6
-1 18 -7 28 -14 16 -13 7 -20 -100 -82 -65 -37 -137 -81 -161 -97 -24 -16 -46
-26 -49 -23 -6 6 46 52 91 80 18 11 26 21 19 23 -16 6 -70 -27 -102 -61 -14
-14 -31 -26 -39 -26 -13 0 -12 -3 1 -18 23 -25 21 -55 -4 -70 -20 -13 -20 -14
-3 -27 11 -7 22 -11 26 -9 9 6 23 -44 15 -52 -3 -3 -20 9 -37 28 -21 21 -42
33 -59 33 -19 0 -27 6 -29 22 -4 26 79 118 166 185 60 46 176 107 207 107 11
1 -2 -10 -30 -23z m459 3 c24 -29 14 -98 -20 -139 l-26 -30 20 -32 c13 -22 18
-44 15 -65 l-5 -32 -34 22 c-30 19 -34 27 -34 65 0 102 33 230 60 232 3 0 14
-10 24 -21z m-788 -200 c9 -16 -10 -31 -30 -23 -13 5 -14 9 -5 20 14 17 25 18
35 3z m737 -104 c40 -36 35 -61 -17 -87 -53 -26 -76 -15 -76 36 0 36 7 48 35
64 26 15 26 15 58 -13z m-661 -38 c7 -2 9 -8 5 -13 -4 -5 -12 -2 -17 6 -6 8
-10 11 -10 6 0 -5 -7 -3 -15 4 -8 7 -12 16 -9 21 3 5 12 3 19 -5 8 -8 20 -16
27 -19z m301 -71 c25 -19 10 -24 -42 -13 -32 6 -40 11 -30 18 20 13 51 10 72
-5z"/>
<path d="M1668 2183 c6 -2 18 -2 25 0 6 3 1 5 -13 5 -14 0 -19 -2 -12 -5z"/>
<path d="M1581 2141 c-25 -25 -54 -81 -47 -89 3 -3 6 -1 6 5 0 6 16 31 35 57
37 48 40 61 6 27z"/>
<path d="M1471 2026 c-18 -10 -20 -14 -8 -19 8 -3 23 3 33 14 20 22 10 24 -25
5z"/>
<path d="M1650 2085 c0 -5 5 -17 10 -25 5 -8 10 -10 10 -5 0 6 -5 17 -10 25
-5 8 -10 11 -10 5z"/>
<path d="M1830 2032 c-13 -14 -12 -15 3 -9 11 4 16 3 12 -3 -8 -14 -38 -13
-53 2 -7 7 -12 8 -12 2 0 -16 46 -34 57 -23 13 13 75 -22 68 -39 -4 -10 0 -10
17 -1 l22 12 -25 18 c-13 10 -35 27 -49 37 -23 18 -27 18 -40 4z"/>
<path d="M2020 1966 c-15 -39 -12 -46 6 -13 9 16 13 31 10 34 -3 3 -10 -6 -16
-21z"/>
<path d="M1485 1960 c-3 -5 -2 -10 4 -10 5 0 13 5 16 10 3 6 2 10 -4 10 -5 0
-13 -4 -16 -10z"/>
<path d="M1580 1918 c-7 -12 -24 -35 -38 -50 -29 -31 -24 -36 12 -13 24 16 53
71 43 81 -3 3 -11 -5 -17 -18z"/>
<path d="M1716 1464 c-3 -9 -6 -24 -6 -33 0 -10 -17 -30 -37 -46 -21 -15 -30
-25 -20 -22 14 5 17 0 18 -36 1 -23 5 -55 10 -72 5 -19 6 -3 2 43 -4 64 -3 76
15 95 11 12 23 37 27 55 7 33 2 44 -9 16z"/>
<path d="M1682 1435 c0 -16 2 -22 5 -12 2 9 2 23 0 30 -3 6 -5 -1 -5 -18z"/>
<path d="M1703 1335 c0 -27 2 -38 4 -22 2 15 2 37 0 50 -2 12 -4 0 -4 -28z"/>
<path d="M1080 1240 c-19 -16 -30 -30 -23 -30 6 0 15 5 18 10 4 6 10 8 15 5
10 -6 33 21 28 34 -1 5 -19 -3 -38 -19z"/>
<path d="M1821 1445 c-1 -5 -4 -26 -6 -45 -4 -31 -3 -32 6 -10 5 13 8 33 6 45
-2 11 -5 16 -6 10z"/>
<path d="M1711 1139 c-1 -14 5 -33 12 -42 11 -16 13 -16 24 2 10 16 10 19 0
15 -7 -2 -18 7 -24 23 l-11 28 -1 -26z"/>
<path d="M1203 2543 c8 -7 -85 -42 -120 -45 -12 -1 -20 -5 -17 -9 2 -4 0 -10
-5 -14 -6 -3 -7 -13 -4 -22 6 -14 7 -14 14 4 5 14 29 26 83 42 64 19 75 25 65
37 -6 8 -14 14 -17 14 -3 0 -2 -3 1 -7z"/>
<path d="M1399 2481 c-25 -10 -63 -40 -57 -46 4 -5 98 42 98 49 0 5 -26 3 -41
-3z"/>
<path d="M1135 2456 c-48 -18 -55 -24 -37 -28 12 -4 22 -2 22 2 0 5 25 14 55
21 31 7 58 16 61 21 9 15 -40 7 -101 -16z"/>
<path d="M1801 2426 c-9 -11 -8 -14 5 -12 31 2 26 -23 -8 -44 -22 -14 -43 -19
-63 -15 -22 4 -26 2 -15 -5 31 -20 76 -11 116 25 38 34 38 35 20 50 -25 19
-40 19 -55 1z"/>
<path d="M1321 2402 c-6 -12 -11 -37 -11 -57 0 -20 -4 -41 -10 -48 -46 -56
-79 -109 -66 -104 9 4 16 2 16 -3 0 -5 -10 -10 -22 -11 -13 0 -47 -1 -75 -2
-29 -1 -53 -5 -53 -9 0 -12 49 -21 86 -15 31 5 33 4 24 -14 -7 -13 -7 -19 0
-19 5 0 10 4 10 10 0 5 15 16 33 24 17 8 27 15 20 15 -21 2 6 71 28 71 5 0 15
-12 22 -27 6 -15 22 -38 35 -52 20 -22 23 -34 8 -32 -4 1 -18 -11 -31 -26 -14
-16 -24 -21 -23 -13 2 8 10 21 18 27 13 11 13 15 -4 28 -16 12 -23 12 -60 -7
-22 -12 -59 -23 -80 -24 -40 -4 -93 -31 -82 -42 4 -3 12 0 18 6 7 7 27 12 45
12 29 0 33 -3 33 -27 l1 -28 14 33 c8 19 25 36 42 42 15 6 36 15 46 20 17 10
24 0 10 -14 -5 -4 -8 -11 -9 -14 0 -4 -6 -20 -12 -35 -7 -16 -12 -31 -12 -34
0 -4 -8 -15 -17 -26 -17 -19 -17 -20 3 -9 12 6 29 23 38 37 10 15 31 31 47 37
37 13 65 61 45 77 -19 16 -86 127 -86 143 0 11 2 11 9 -1 6 -10 14 3 25 42 19
66 20 75 4 59 -6 -6 -15 -31 -19 -54 l-6 -43 -2 46 c0 25 4 50 11 57 6 6 9 14
6 18 -4 3 -11 -3 -17 -14z"/>
<path d="M1291 2379 c0 -9 -10 -28 -22 -43 -11 -14 -15 -26 -9 -26 19 0 -1
-21 -34 -36 l-31 -15 30 6 c34 7 45 16 49 38 1 8 8 22 15 30 7 9 11 26 8 39
-2 13 -5 16 -6 7z"/>
<path d="M2313 2362 c-35 -15 -63 -30 -63 -34 0 -4 10 -19 23 -33 l22 -26 59
24 c44 18 54 26 40 31 -9 4 -22 2 -28 -4 -14 -14 -29 -13 -21 3 4 6 -3 1 -15
-13 -20 -23 -21 -23 -10 -2 6 12 8 27 5 32 -3 5 10 16 30 26 33 16 44 24 28
24 -5 -1 -36 -13 -70 -28z m0 -37 c-7 -21 -13 -19 -13 6 0 11 4 18 10 14 5 -3
7 -12 3 -20z"/>
<path d="M1120 2316 c-16 -42 -12 -64 13 -80 44 -27 72 -27 97 -1 26 28 24 30
-14 15 -17 -6 -26 -6 -26 0 0 6 -13 10 -29 10 -33 0 -46 22 -30 52 6 11 8 22
5 25 -3 3 -10 -6 -16 -21z"/>
<path d="M2338 2273 l-38 -15 32 -46 c17 -26 32 -48 34 -50 1 -2 50 12 109 31
81 26 100 36 81 39 -14 3 -26 1 -26 -4 0 -5 -4 -7 -9 -3 -5 3 -12 1 -15 -4 -5
-7 -54 -21 -88 -25 -3 -1 -10 -4 -14 -8 -4 -5 -12 -8 -17 -8 -6 0 -7 3 -4 7 4
3 1 13 -7 22 -7 9 -17 27 -20 41 -4 14 -4 20 1 14 6 -8 14 -5 27 7 24 24 7 24
-46 2z"/>
<path d="M2473 2176 l-101 -31 14 -25 c18 -34 17 -40 -5 -40 -11 0 -23 -5 -27
-12 -5 -8 2 -9 23 -5 25 5 32 2 44 -21 l14 -28 75 18 c57 13 63 16 26 12 -27
-3 -56 -8 -64 -12 -11 -4 -14 -1 -9 11 4 10 0 18 -12 22 -19 6 -31 33 -31 70
0 17 2 18 10 5 9 -13 12 -13 24 3 8 10 20 20 28 21 7 2 26 8 41 14 16 7 32 12
37 12 5 0 12 5 15 10 3 6 5 10 3 9 -2 0 -49 -15 -105 -33z"/>
<path d="M1025 2177 c-41 -30 -89 -76 -84 -81 2 -2 31 20 63 50 63 58 70 67
21 31z"/>
<path d="M1830 2196 c0 -8 60 -12 72 -4 8 4 -4 8 -29 8 -24 0 -43 -2 -43 -4z"/>
<path d="M1025 2115 c-28 -25 -41 -42 -30 -36 19 9 94 81 84 81 -2 0 -27 -20
-54 -45z"/>
<path d="M2528 2013 c6 -2 18 -2 25 0 6 3 1 5 -13 5 -14 0 -19 -2 -12 -5z"/>
<path d="M440 2000 c-51 -6 -52 -7 -14 -8 47 -2 51 -13 27 -79 -13 -40 -18
-43 -51 -44 -20 -1 -40 -1 -44 0 -5 0 -8 -3 -8 -9 0 -6 26 -10 59 -10 l59 0
15 63 c8 34 18 70 22 80 4 9 3 16 -1 15 -5 -1 -34 -4 -64 -8z"/>
<path d="M561 1935 c-12 -38 -21 -80 -21 -92 0 -20 -5 -23 -41 -23 -24 0 -38
4 -34 10 4 6 -22 10 -69 10 -42 0 -76 -4 -76 -9 0 -5 15 -8 33 -7 75 6 104
-28 71 -81 -12 -19 -12 -23 3 -31 15 -9 14 -10 -3 -16 -11 -3 -20 -16 -21 -28
-2 -18 0 -20 7 -8 9 14 14 7 11 -12 0 -5 4 -8 11 -8 27 0 -6 -14 -64 -26 l-63
-13 55 5 c87 8 101 14 95 35 -4 10 -3 50 1 89 l7 70 34 0 c30 0 34 -3 31 -22
-2 -13 -10 -23 -18 -24 -35 -2 -41 -5 -35 -14 3 -6 17 -7 30 -4 24 6 24 5 18
-45 -6 -50 -5 -51 21 -51 19 0 26 5 26 20 0 22 15 27 23 8 4 -8 6 -7 6 3 1 9
-6 19 -14 23 -8 3 -15 1 -15 -4 0 -6 -5 -10 -11 -10 -6 0 -9 9 -6 20 3 11 1
20 -5 20 -5 0 -6 5 -3 10 3 6 34 10 67 10 34 0 58 3 55 7 -4 3 -31 7 -60 7
-46 1 -52 4 -55 24 -3 22 -2 22 121 22 l124 0 -5 -25 c-2 -15 0 -25 7 -25 6 0
11 11 11 25 0 16 6 25 15 25 9 0 15 -9 15 -25 0 -19 5 -25 23 -24 12 0 16 3
10 6 -7 2 -13 13 -13 23 0 10 6 21 13 23 9 4 9 6 0 6 -7 1 -10 8 -7 16 4 8 1
15 -5 15 -6 0 -11 -7 -11 -16 0 -10 -7 -14 -17 -12 -10 2 -17 10 -16 16 2 7
-4 12 -12 12 -8 0 -14 -5 -12 -12 1 -6 -7 -14 -17 -16 -32 -7 -230 9 -216 18
10 6 9 9 -1 13 -8 3 42 6 110 6 68 1 122 3 120 6 -3 2 -52 6 -109 8 -116 4
-110 0 -94 72 11 48 21 55 93 56 77 2 64 6 -31 11 l-66 4 -21 -71z"/>
<path d="M2435 1994 c-16 -8 -38 -14 -50 -13 -11 1 -36 0 -55 -1 -35 -2 -35
-2 -6 -9 16 -3 32 -13 34 -21 5 -13 3 -13 -13 0 -15 12 -17 12 -10 1 6 -11 4
-13 -8 -8 -10 4 -17 2 -17 -4 0 -6 9 -9 20 -6 10 3 24 0 29 -7 10 -12 31 -148
24 -156 -2 -2 -28 -8 -56 -11 l-52 -7 60 0 c76 0 85 -1 60 -12 -11 -5 -58 -10
-105 -11 l-85 -3 95 -5 c83 -5 95 -8 92 -23 -2 -10 2 -18 8 -18 6 0 8 -5 5
-10 -4 -6 -11 -8 -16 -4 -6 3 -8 -5 -5 -20 6 -31 -4 -34 -108 -35 -48 0 -86 5
-95 12 -12 9 -13 9 -7 0 5 -9 2 -11 -9 -7 -18 7 -14 30 4 26 7 -1 10 2 7 7 -4
5 0 12 6 14 7 3 -1 6 -18 6 -30 1 -32 -1 -36 -39 l-4 -40 150 0 149 0 -6 133
c-3 76 -12 153 -21 181 -20 61 -20 62 2 62 9 1 25 4 35 9 14 6 17 2 17 -18 0
-20 -4 -24 -19 -20 -11 3 -21 -2 -25 -12 -5 -15 -2 -17 23 -12 21 4 31 2 35
-9 10 -27 7 -34 -19 -34 -14 0 -25 -5 -25 -11 0 -6 12 -9 28 -7 26 3 27 0 34
-47 3 -27 7 -86 7 -130 l1 -80 92 5 c78 4 84 5 33 7 -100 5 -102 6 -101 60 2
62 9 73 54 75 29 1 25 3 -18 7 l-55 7 45 11 c36 10 38 12 12 9 -28 -2 -35 1
-43 22 -5 14 -8 27 -5 29 2 2 -3 25 -11 51 -19 61 -23 92 -12 92 5 0 9 4 9 10
0 5 -8 7 -17 5 -10 -3 -4 1 12 9 29 15 30 15 5 15 -14 1 -38 -6 -55 -15z"/>
<path d="M2236 1955 c-7 -19 -5 -19 30 0 l29 15 -26 0 c-15 0 -29 -7 -33 -15z"/>
<path d="M502 1938 c3 -7 13 -15 23 -16 10 -2 15 0 11 6 -3 6 0 13 6 15 7 3 0
6 -15 6 -19 1 -27 -3 -25 -11z"/>
<path d="M1740 1887 c18 -16 62 -31 154 -52 100 -22 92 -12 -10 14 -48 12
-103 29 -123 37 -27 11 -32 12 -21 1z"/>
<path d="M810 1860 c-11 -7 -3 -10 30 -10 33 0 41 3 30 10 -8 5 -22 10 -30 10
-8 0 -22 -5 -30 -10z"/>
<path d="M764 1718 c-4 -6 -3 -8 4 -4 6 3 13 2 16 -3 4 -5 -2 -12 -11 -14 -14
-4 -13 -5 4 -6 12 0 25 4 29 10 4 6 20 8 40 4 21 -3 34 -2 34 4 0 6 -7 8 -15
5 -8 -4 -15 -1 -15 5 0 15 -77 14 -86 -1z"/>
<path d="M896 1712 c-3 -5 8 -6 25 -4 16 2 29 6 29 8 0 8 -49 4 -54 -4z"/>
<path d="M1709 1703 c-13 -16 -12 -17 4 -4 16 13 21 21 13 21 -2 0 -10 -8 -17
-17z"/>
<path d="M662 1678 c-25 -10 37 -8 68 2 21 7 19 8 -13 7 -20 -1 -45 -5 -55 -9z"/>
<path d="M1845 1599 c7 -24 7 -24 -10 -4 -22 27 -16 10 20 -53 17 -28 34 -52
39 -52 5 0 3 7 -4 15 -7 8 -10 21 -7 28 3 8 1 20 -5 28 -8 11 -9 10 -4 -3 3
-10 1 -18 -4 -18 -10 0 -14 20 -11 52 1 9 -3 19 -10 23 -8 5 -9 1 -4 -16z"/>
<path d="M530 1573 c1 -88 69 -282 136 -386 26 -40 48 -73 49 -75 1 -2 29 15
60 37 32 23 52 41 45 41 -7 0 -28 -11 -46 -25 -40 -31 -46 -31 -63 -3 -10 16
-10 23 -2 26 21 7 11 22 -11 17 -18 -4 -26 0 -35 20 -10 22 -8 27 10 40 12 8
31 15 44 15 12 0 25 5 29 12 5 7 2 9 -9 5 -8 -3 -32 -9 -51 -13 -20 -3 -33
-10 -30 -15 3 -5 -2 -6 -11 -3 -21 8 -13 16 43 37 26 9 36 15 22 12 -88 -20
-93 -19 -88 3 4 12 2 22 -2 22 -20 0 -59 165 -53 225 3 30 1 35 -17 35 -15 0
-20 -6 -20 -27z"/>
<path d="M2472 1499 c-31 -198 -128 -379 -289 -541 l-76 -78 -17 38 c-32 72
-88 123 -166 153 -24 8 -25 8 -14 -6 7 -8 9 -15 4 -15 -5 -1 13 -9 40 -20 65
-26 78 -39 116 -123 92 -208 135 -281 151 -256 6 10 13 9 31 -6 l23 -20 -19
22 c-10 12 -27 23 -39 25 -22 3 -39 29 -81 117 -30 61 -32 81 -11 81 8 0 15 5
15 10 0 6 4 10 9 10 12 0 100 88 94 94 -2 2 5 7 16 11 12 3 19 10 16 14 -2 5
7 21 20 35 14 15 25 30 25 34 0 4 11 17 25 30 13 13 24 27 23 30 -2 4 10 28
26 54 15 26 29 53 30 60 7 30 19 48 35 49 10 0 11 2 4 6 -18 7 -16 23 2 23 8
0 12 6 9 14 -3 8 -1 24 6 35 9 18 8 21 -7 21 -16 0 -16 2 3 18 15 12 22 29 23
61 0 24 5 49 11 56 6 7 6 15 -2 23 -8 8 14 11 82 11 51 0 95 3 98 6 3 3 -42 5
-99 5 l-105 0 -12 -81z"/>
<path d="M1370 1550 c-8 -11 -21 -20 -30 -20 -13 0 -13 -2 0 -10 16 -10 35 2
51 32 13 24 -3 23 -21 -2z"/>
<path d="M570 1550 c0 -6 7 -10 15 -10 8 0 15 2 15 4 0 2 -7 6 -15 10 -8 3
-15 1 -15 -4z"/>
<path d="M2111 1517 c-10 -42 -8 -50 23 -118 41 -87 45 -81 12 13 -13 37 -20
70 -17 73 3 4 6 14 6 23 0 15 15 17 120 19 l120 2 0 -47 c0 -34 -4 -51 -17
-60 -10 -7 -16 -18 -12 -23 6 -10 -28 -105 -54 -149 -44 -73 -43 -72 -58 -59
-13 10 -19 8 -39 -17 -14 -16 -30 -35 -36 -43 -9 -10 -9 -18 0 -33 13 -21 5
-35 -49 -85 l-25 -22 -25 28 c-32 36 -77 66 -112 75 -40 9 -35 1 15 -24 50
-26 83 -55 107 -93 l17 -27 71 74 c134 141 208 287 256 507 l6 26 -149 2 -148
2 -12 -44z m123 -345 c3 -5 -7 -25 -21 -46 -34 -48 -54 -32 -21 18 23 36 33
43 42 28z"/>
<path d="M1276 1498 c2 -3 -20 -11 -49 -18 -28 -6 -63 -16 -77 -21 -14 -5 -34
-11 -45 -14 -11 -2 -38 -11 -60 -19 -22 -8 -48 -15 -57 -16 -10 0 -18 -6 -18
-12 0 -7 -18 7 -40 32 l-39 45 32 12 c30 11 30 12 7 12 -31 1 -138 -24 -148
-34 -4 -4 18 -4 48 -1 48 6 53 5 38 -7 -19 -15 -24 -42 -9 -52 6 -3 9 -14 8
-25 -1 -18 -12 -24 -44 -23 -7 1 -13 -3 -13 -8 0 -5 -8 -9 -17 -9 -9 0 -14 -3
-11 -6 5 -4 111 22 126 32 2 1 -6 17 -17 35 -25 40 -26 49 -6 49 8 0 21 -13
30 -29 8 -17 19 -33 25 -36 10 -6 261 67 355 105 50 19 50 19 13 17 -20 -1
-34 -5 -32 -9z"/>
<path d="M2065 1480 c3 -5 8 -10 11 -10 2 0 4 5 4 10 0 6 -5 10 -11 10 -5 0
-7 -4 -4 -10z"/>
<path d="M505 1421 c-3 -5 -1 -12 5 -16 12 -7 30 2 30 16 0 12 -27 12 -35 0z"/>
<path d="M1378 1358 c-26 -11 -49 -26 -52 -33 -3 -9 5 -8 27 5 18 11 57 26 87
34 48 13 51 15 20 15 -19 -1 -56 -10 -82 -21z"/>
<path d="M545 1350 c-3 -5 -1 -10 4 -10 6 0 11 5 11 10 0 6 -2 10 -4 10 -3 0
-8 -4 -11 -10z"/>
<path d="M1470 1329 c-22 -18 -22 -19 -3 -10 12 6 25 16 28 21 9 15 3 12 -25
-11z"/>
<path d="M1020 1330 c-8 -5 -10 -10 -5 -10 6 0 17 5 25 10 8 5 11 10 5 10 -5
0 -17 -5 -25 -10z"/>
<path d="M1952 1306 c-23 -18 -39 -36 -36 -39 3 -3 0 -8 -7 -13 -8 -4 -10 -3
-5 4 4 7 0 12 -10 12 -16 0 -16 -1 1 -20 10 -11 21 -20 25 -20 3 0 19 18 36
39 18 25 39 41 54 43 24 3 24 3 4 15 -17 10 -26 7 -62 -21z"/>
<path d="M2091 1319 c-13 -5 -22 -11 -20 -13 8 -7 79 7 79 15 0 11 -28 11 -59
-2z"/>
<path d="M942 1299 c2 -7 -1 -13 -7 -14 -29 -2 -65 -17 -65 -26 0 -6 6 -7 13
-4 6 4 1 -2 -13 -14 -22 -18 -39 -68 -19 -55 4 2 6 11 3 18 -3 8 3 17 13 20
33 11 97 72 84 80 -7 5 -10 2 -9 -5z"/>
<path d="M1400 1299 c-13 -6 -35 -7 -47 -4 -14 3 -23 1 -23 -6 0 -15 87 -6
103 10 13 13 1 13 -33 0z"/>
<path d="M1977 1255 c-43 -50 -42 -78 1 -38 15 14 26 27 24 29 -1 3 4 12 13
20 16 16 20 34 8 34 -5 -1 -25 -21 -46 -45z"/>
<path d="M572 1261 c-11 -7 -10 -10 3 -15 22 -8 22 -8 29 9 6 16 -11 20 -32 6z"/>
<path d="M917 1241 c-37 -28 -46 -41 -29 -41 4 0 14 6 24 14 9 8 18 12 21 10
2 -2 9 7 15 21 6 14 11 25 9 25 -1 0 -19 -14 -40 -29z"/>
<path d="M2071 1238 c-41 -44 -42 -82 -2 -71 10 2 28 23 41 46 l22 42 -40 -45
c-48 -53 -56 -45 -11 12 39 49 32 61 -10 16z"/>
<path d="M1240 1240 c-12 -8 -12 -10 5 -9 11 0 29 4 40 9 18 8 18 9 -5 9 -14
0 -32 -4 -40 -9z"/>
<path d="M603 1220 c-13 -5 -23 -11 -23 -14 0 -7 40 6 46 15 6 10 6 10 -23 -1z"/>
<path d="M611 1201 c-22 -14 -4 -33 20 -21 11 6 17 15 14 21 -8 11 -16 11 -34
0z"/>
<path d="M512 1168 c-60 -23 -63 -35 -5 -19 48 14 76 14 68 1 -3 -6 3 -23 14
-39 16 -22 18 -31 9 -34 -8 -3 -6 -6 5 -6 26 -1 20 -14 -21 -41 -20 -14 -39
-27 -42 -30 -3 -4 -26 -21 -52 -39 -26 -19 -49 -40 -52 -48 -6 -14 154 94 217
148 5 3 -7 29 -27 57 -20 27 -36 54 -36 61 0 15 -15 13 -78 -11z"/>
<path d="M1290 1180 c0 -9 39 -25 45 -18 2 2 -7 8 -21 15 -13 6 -24 7 -24 3z"/>
<path d="M1340 1186 c0 -9 30 -14 35 -6 4 6 -3 10 -14 10 -12 0 -21 -2 -21 -4z"/>
<path d="M782 1129 c-51 -48 -50 -51 48 -142 164 -152 354 -237 564 -254 l79
-6 -5 46 -6 47 32 0 c31 0 31 0 27 -46 l-3 -47 45 5 c44 5 45 5 50 -26 2 -17
3 -33 1 -35 -10 -11 -188 -12 -267 -1 -230 31 -428 130 -594 298 l-82 83 -120
-83 c-66 -47 -112 -85 -104 -86 8 -2 26 6 39 19 13 12 24 19 24 14 0 -5 9 1
20 13 12 12 30 22 41 22 11 0 18 4 14 9 -9 16 15 24 31 10 13 -10 22 -9 50 6
40 22 59 11 27 -15 l-23 -18 40 4 c30 3 40 0 40 -11 0 -8 5 -15 11 -15 5 0 7
-4 4 -10 -3 -6 1 -7 9 -4 20 8 21 -10 1 -26 -8 -7 -15 -17 -15 -23 0 -6 7 -4
16 5 19 18 32 13 125 -51 26 -17 51 -31 55 -31 5 0 22 -11 38 -25 16 -14 37
-25 48 -25 10 0 18 -3 18 -8 0 -9 40 -26 115 -47 57 -16 77 -21 135 -31 14 -3
79 -6 146 -8 143 -5 183 7 185 51 1 21 3 23 6 8 10 -41 20 -43 91 -23 37 10
80 20 96 22 15 2 31 8 35 13 3 6 24 16 46 23 22 7 45 20 51 28 6 8 18 13 26
10 8 -4 21 -3 28 2 10 6 8 11 -8 19 -17 9 -29 6 -67 -15 -48 -26 -277 -105
-284 -98 -3 2 5 13 17 24 12 12 22 28 22 38 0 12 17 22 61 35 33 10 82 28 108
41 48 23 48 23 75 3 15 -11 29 -17 32 -14 7 7 -52 47 -77 52 -28 6 -39 15 -79
71 -45 63 -23 52 30 -14 23 -30 44 -51 47 -48 3 2 -7 20 -21 39 -14 19 -26 38
-26 43 0 13 -63 74 -75 74 -6 0 -2 -5 8 -11 9 -5 17 -15 17 -21 0 -6 -11 -3
-25 6 -14 9 -25 12 -25 6 0 -5 4 -10 9 -10 5 0 12 -10 15 -22 3 -13 24 -43 47
-67 48 -52 45 -70 -17 -87 -89 -24 -106 -34 -125 -74 -13 -27 -17 -30 -22 -15
-4 9 -4 22 -1 28 3 7 -2 3 -11 -8 -13 -17 -17 -18 -25 -5 -5 8 -6 18 -3 23 3
4 -11 5 -30 2 -35 -7 -36 -6 -39 26 -7 73 -108 71 -108 -1 0 -27 -3 -30 -34
-30 -89 0 -239 43 -219 63 3 4 2 7 -4 7 -6 0 -16 -6 -23 -14 -19 -24 -42 -8
-35 25 7 32 -2 38 -20 12 -11 -15 -17 -14 -69 11 -31 15 -56 32 -56 37 0 5 -6
9 -12 9 -19 1 -70 48 -64 59 3 5 0 8 -7 7 -20 -2 -89 63 -81 76 4 6 3 8 -3 5
-5 -3 -18 4 -28 15 -17 21 -17 22 6 43 33 28 53 55 43 55 -5 0 -28 -19 -52
-41z m-102 -125 c0 -11 -60 -32 -65 -24 -3 6 4 14 16 18 22 9 49 11 49 6z"/>
<path d="M688 1083 c7 -3 16 -2 19 1 4 3 -2 6 -13 5 -11 0 -14 -3 -6 -6z"/>
<path d="M774 996 c-10 -8 -15 -18 -11 -22 4 -4 15 0 24 9 22 21 12 31 -13 13z"/>
<path d="M1640 993 c0 -5 17 -9 38 -10 28 -1 32 1 17 7 -26 11 -55 12 -55 3z"/>
<path d="M1996 978 c9 -30 34 -66 34 -50 0 16 -28 72 -36 72 -3 0 -2 -10 2
-22z"/>
<path d="M1182 978 c-7 -7 -12 -18 -12 -24 0 -7 -12 -22 -26 -33 -14 -11 -23
-25 -19 -31 12 -19 22 -10 49 41 27 52 30 69 8 47z"/>
<path d="M1568 949 c18 -20 39 -36 47 -36 8 0 12 4 9 9 -3 5 -9 6 -14 3 -5 -3
-15 3 -22 12 -7 10 -22 25 -33 33 -11 8 -5 -2 13 -21z"/>
<path d="M1233 953 c-3 -10 -8 -21 -10 -25 -2 -5 0 -8 5 -8 5 0 14 11 20 25 7
16 8 25 1 25 -5 0 -12 -8 -16 -17z"/>
<path d="M1632 950 c0 -14 2 -19 5 -12 2 6 2 18 0 25 -3 6 -5 1 -5 -13z"/>
<path d="M1536 947 c2 -7 14 -19 27 -26 21 -13 21 -12 -2 13 -27 29 -33 32
-25 13z"/>
<path d="M1910 904 c27 -26 47 -51 43 -57 -3 -5 -1 -7 4 -4 6 4 13 1 16 -6 3
-6 19 -20 37 -31 18 -10 31 -14 29 -9 -7 16 -156 153 -167 153 -6 0 11 -21 38
-46z"/>
<path d="M1658 920 c-7 -24 -3 -38 8 -28 3 4 4 17 2 30 l-3 23 -7 -25z"/>
<path d="M1705 919 c-4 -6 -5 -12 -2 -15 2 -3 7 2 10 11 7 17 1 20 -8 4z"/>
<path d="M1203 894 c-7 -7 -13 -23 -13 -36 1 -22 1 -22 15 -4 8 10 12 22 10
27 -3 4 0 9 7 11 7 3 8 7 3 10 -6 3 -16 0 -22 -8z"/>
<path d="M1618 873 c5 -21 7 -23 10 -9 2 10 0 22 -6 28 -6 6 -7 0 -4 -19z"/>
<path d="M1632 810 c0 -14 2 -19 5 -12 2 6 2 18 0 25 -3 6 -5 1 -5 -13z"/>
<path d="M1662 800 c0 -19 2 -27 5 -17 2 9 2 25 0 35 -3 9 -5 1 -5 -18z"/>
<path d="M915 739 c-4 -6 -5 -12 -2 -15 2 -3 7 2 10 11 7 17 1 20 -8 4z"/>
<path d="M2266 602 c-6 -10 25 -52 77 -105 27 -27 38 -64 32 -110 -4 -31 -3
-37 4 -22 26 55 7 114 -53 165 -16 13 -34 37 -41 53 -7 17 -15 25 -19 19z"/>
<path d="M2162 578 c7 -15 15 -23 17 -17 2 6 -4 18 -13 27 -15 15 -15 15 -4
-10z"/>
<path d="M2230 567 c0 -12 -4 -16 -12 -11 -9 5 -9 3 1 -9 7 -9 17 -15 21 -12
4 3 15 -6 24 -20 20 -31 21 -41 1 -25 -12 10 -11 4 3 -29 19 -43 41 -72 27
-36 -4 11 -9 29 -12 40 -4 18 -3 18 16 -4 12 -12 18 -28 14 -35 -4 -7 -1 -7 7
1 11 10 10 16 -4 32 -10 10 -33 43 -51 73 -21 31 -35 46 -35 35z"/>
<path d="M2210 519 c0 -13 32 -70 37 -65 3 3 -4 20 -16 38 -11 18 -21 30 -21
27z"/>
<path d="M2275 390 c28 -34 68 -70 74 -65 2 3 2 6 0 8 -2 1 -24 20 -49 42 -24
22 -36 29 -25 15z"/>
</g>
</svg>
